<svg width="16" height="13" viewBox="0 0 16 13" fill="none" xmlns="http://www.w3.org/2000/svg">
<g clip-path="url(#clip0_1_484)">
<path d="M0.970141 0.227433C0.710141 0.022433 0.33264 0.069933 0.127641 0.329933C-0.0773595 0.589933 -0.0298595 0.967433 0.230141 1.17243L15.0301 12.7724C15.2901 12.9774 15.6676 12.9299 15.8726 12.6699C16.0776 12.4099 16.0301 12.0324 15.7701 11.8274L14.3601 10.7224C15.3476 10.0824 16.0001 8.96993 16.0001 7.70493C16.0001 5.81243 14.5326 4.24243 12.6426 4.11743L12.4401 4.10493C12.1101 4.08243 11.8226 4.33243 11.8026 4.66493C11.7826 4.99743 12.0301 5.28243 12.3601 5.30243L12.5626 5.31493C13.8226 5.39993 14.8001 6.44493 14.8001 7.70493C14.8001 8.69993 14.1926 9.55493 13.3301 9.91493L10.3701 7.59493C10.8901 6.96993 11.2001 6.16743 11.2001 5.29743C11.2001 3.30993 9.59014 1.69993 7.60264 1.69993H3.59764C3.37014 1.69993 3.14514 1.72243 2.92764 1.76243L0.970141 0.227433ZM4.38014 2.89993H7.60514C8.92764 2.89993 10.0026 3.97243 10.0026 5.29743C10.0026 5.88993 9.78764 6.43493 9.42764 6.85493L4.38014 2.89993ZM11.1701 11.2999L9.64764 10.0999H8.40014C7.07514 10.0999 6.00264 9.02743 6.00264 7.70243C6.00264 7.55243 6.01764 7.40243 6.04264 7.25993L5.02264 6.45743C4.88014 6.84743 4.80014 7.26743 4.80014 7.70243C4.80014 9.68993 6.41014 11.2999 8.39764 11.2999H11.1701ZM0.75264 3.09243C0.280141 3.70243 0.000140524 4.46743 0.000140524 5.29743C0.000140524 7.18993 1.46764 8.75993 3.35764 8.88493L3.56014 8.89743C3.89014 8.91993 4.17764 8.66993 4.19764 8.33993C4.21764 8.00993 3.97014 7.72243 3.63764 7.70243L3.43514 7.68993C2.17764 7.60493 1.20014 6.55743 1.20014 5.29743C1.20014 4.74743 1.38514 4.24243 1.69514 3.83743L0.75264 3.09243Z" fill="#FF4B55"/>
</g>
<defs>
<clipPath id="clip0_1_484">
<rect width="16" height="12.8" fill="white" transform="translate(0 0.100006)"/>
</clipPath>
</defs>
</svg>
